<?xml version="1.0" encoding="utf-8"?>
<!-- Generator: Adobe Illustrator 26.3.1, SVG Export Plug-In . SVG Version: 6.00 Build 0)  -->
<svg version="1.1" id="Camada_1" xmlns="http://www.w3.org/2000/svg" xmlns:xlink="http://www.w3.org/1999/xlink" x="0px" y="0px"
	 viewBox="0 0 566.9 566.9" style="enable-background:new 0 0 566.9 566.9;" xml:space="preserve">
<style type="text/css">
	.st0{fill:#BA2749;}
	.st1{fill:#3C3C3B;}
</style>
<g>
	<g>
		<path class="st0" d="M67.6,417.8c-6.1,0-11.7-1.4-16.6-4.3c-4.9-2.9-8.8-6.8-11.7-11.7c-2.9-5-4.3-10.5-4.3-16.7
			c0-6.2,1.3-11.8,3.9-16.7c2.6-4.9,6.2-8.8,10.8-11.7c4.6-2.9,9.7-4.3,15.4-4.3c4.6,0,8.9,1,12.8,2.9c3.9,1.9,7.2,4.5,9.9,7.8
			v-31.8c0-1.8,0.6-3.3,1.7-4.4c1.1-1.1,2.6-1.7,4.3-1.7c1.8,0,3.3,0.6,4.4,1.7c1.1,1.1,1.7,2.6,1.7,4.4v53.7
			c0,6.2-1.4,11.8-4.3,16.7c-2.9,4.9-6.7,8.9-11.6,11.7C79.2,416.4,73.7,417.8,67.6,417.8z M67.6,407.2c4,0,7.6-1,10.7-2.9
			c3.1-1.9,5.6-4.6,7.4-8c1.8-3.4,2.7-7.1,2.7-11.3c0-4.2-0.9-8-2.7-11.3c-1.8-3.3-4.3-5.9-7.4-7.8c-3.1-1.9-6.7-2.9-10.7-2.9
			c-3.9,0-7.5,1-10.7,2.9c-3.2,1.9-5.7,4.5-7.5,7.8c-1.8,3.3-2.8,7.1-2.8,11.3c0,4.2,0.9,7.9,2.8,11.3c1.8,3.4,4.4,6,7.5,8
			C60.1,406.3,63.7,407.2,67.6,407.2z"/>
		<path class="st0" d="M121,342.4c-2.1,0-3.9-0.8-5.5-2.3c-1.5-1.5-2.3-3.4-2.3-5.5c0-2.1,0.8-3.9,2.3-5.5c1.5-1.5,3.4-2.3,5.5-2.3
			s3.9,0.8,5.5,2.3c1.5,1.5,2.3,3.4,2.3,5.5c0,2.1-0.8,3.9-2.3,5.5C125,341.6,123.1,342.4,121,342.4z M121,417.4
			c-1.7,0-3.2-0.6-4.3-1.7c-1.1-1.1-1.7-2.6-1.7-4.3v-52.5c0-1.8,0.6-3.3,1.7-4.4c1.1-1.1,2.6-1.7,4.3-1.7c1.8,0,3.3,0.6,4.4,1.7
			c1.1,1.1,1.7,2.6,1.7,4.4v52.5c0,1.7-0.6,3.2-1.7,4.3C124.3,416.8,122.8,417.4,121,417.4z"/>
		<path class="st0" d="M168.9,417.8c-5.9,0-11.1-1.4-15.6-4.2c-4.5-2.8-8.1-6.6-10.7-11.6c-2.6-4.9-3.9-10.5-3.9-16.9
			c0-6.4,1.4-12.1,4.2-17c2.8-4.9,6.6-8.8,11.5-11.6c4.9-2.8,10.5-4.2,16.9-4.2c6.3,0,11.9,1.4,16.7,4.2c4.9,2.8,8.7,6.6,11.5,11.6
			c2.8,4.9,4.2,10.6,4.2,17h-7c0,6.4-1.2,12-3.6,16.9c-2.4,4.9-5.7,8.8-9.8,11.6C179.1,416.5,174.3,417.8,168.9,417.8z M171,444.1
			c-5.6,0-10.8-1.1-15.7-3.3c-4.9-2.2-9-5.4-12.4-9.7c-1-1.3-1.4-2.7-1.1-4.1c0.3-1.4,1-2.6,2.3-3.4c1.4-0.9,2.9-1.3,4.4-0.9
			c1.5,0.3,2.8,1.1,3.7,2.4c2.1,2.7,4.8,4.8,8,6.2c3.2,1.5,6.9,2.2,11,2.2c3.8,0,7.2-0.9,10.4-2.7c3.2-1.8,5.7-4.5,7.6-8
			c1.9-3.5,2.8-7.9,2.8-13v-16.7l3.9-10.4l7.7,2.5v25.5c0,6.2-1.4,11.8-4.1,16.9c-2.8,5.1-6.6,9.1-11.5,12.1
			C183.1,442.6,177.4,444.1,171,444.1z M171.2,407.2c4.1,0,7.7-0.9,10.8-2.8c3.1-1.9,5.6-4.5,7.4-7.8c1.8-3.3,2.7-7.1,2.7-11.4
			c0-4.3-0.9-8.2-2.7-11.5c-1.8-3.3-4.2-6-7.4-7.8c-3.1-1.9-6.8-2.8-10.8-2.8c-4.1,0-7.7,0.9-10.8,2.8c-3.1,1.9-5.6,4.5-7.4,7.8
			c-1.8,3.3-2.7,7.2-2.7,11.5c0,4.3,0.9,8.1,2.7,11.4c1.8,3.3,4.3,5.9,7.4,7.8C163.5,406.3,167.1,407.2,171.2,407.2z"/>
		<path class="st0" d="M221.3,342.4c-2.1,0-3.9-0.8-5.5-2.3c-1.5-1.5-2.3-3.4-2.3-5.5c0-2.1,0.8-3.9,2.3-5.5
			c1.5-1.5,3.4-2.3,5.5-2.3s3.9,0.8,5.5,2.3c1.5,1.5,2.3,3.4,2.3,5.5c0,2.1-0.8,3.9-2.3,5.5C225.3,341.6,223.4,342.4,221.3,342.4z
			 M221.3,417.4c-1.7,0-3.2-0.6-4.3-1.7c-1.1-1.1-1.7-2.6-1.7-4.3v-52.5c0-1.8,0.6-3.3,1.7-4.4c1.1-1.1,2.6-1.7,4.3-1.7
			c1.8,0,3.3,0.6,4.4,1.7c1.1,1.1,1.7,2.6,1.7,4.4v52.5c0,1.7-0.6,3.2-1.7,4.3C224.6,416.8,223.1,417.4,221.3,417.4z"/>
		<path class="st0" d="M245.8,445c-1,0-1.9-0.3-2.5-1c-0.7-0.7-1-1.5-1-2.5v-56.9c0.2-6.2,1.7-11.7,4.5-16.6
			c2.9-4.8,6.8-8.7,11.7-11.5c5-2.8,10.5-4.2,16.6-4.2c6.3,0,11.9,1.4,16.9,4.3c5,2.9,8.9,6.8,11.8,11.8c2.9,5,4.3,10.6,4.3,16.9
			c0,6.2-1.4,11.8-4.3,16.8c-2.9,5-6.8,8.9-11.8,11.8c-5,2.9-10.6,4.3-16.9,4.3c-5.7,0-10.7-1.2-15.3-3.7c-4.5-2.4-8-5.7-10.5-9.8
			v36.8c0,1-0.3,1.9-0.9,2.5C247.8,444.6,246.9,445,245.8,445z M275.2,411.5c5,0,9.4-1.2,13.3-3.5c3.9-2.3,7-5.5,9.3-9.4
			c2.3-4,3.4-8.4,3.4-13.4c0-5-1.1-9.5-3.4-13.5c-2.3-4-5.4-7.1-9.3-9.4c-3.9-2.3-8.3-3.5-13.3-3.5c-4.9,0-9.3,1.2-13.2,3.5
			c-3.9,2.3-7,5.5-9.3,9.4c-2.2,4-3.4,8.5-3.4,13.5c0,5,1.1,9.4,3.4,13.4c2.2,4,5.3,7.1,9.3,9.4
			C265.9,410.3,270.3,411.5,275.2,411.5z"/>
		<path class="st0" d="M331.4,417.4c-3,0-5.6-0.8-8-2.5c-2.3-1.7-4.1-3.9-5.4-6.8c-1.3-2.9-1.9-6.3-1.9-10.1v-69.1
			c0-1.1,0.3-2,1-2.6c0.7-0.6,1.5-0.9,2.5-0.9c1.1,0,2,0.3,2.6,0.9c0.6,0.6,0.9,1.5,0.9,2.6v69.1c0,3.6,0.8,6.6,2.3,8.9
			c1.5,2.3,3.5,3.5,6,3.5h2.9c0.9,0,1.6,0.3,2.1,0.9c0.5,0.6,0.8,1.5,0.8,2.6c0,1-0.3,1.9-0.9,2.5c-0.6,0.7-1.5,1-2.6,1H331.4z"/>
		<path class="st0" d="M368.8,418.1c-6.3,0-11.9-1.4-16.9-4.3c-5-2.9-8.9-6.8-11.8-11.8c-2.9-5-4.3-10.6-4.3-16.8
			c0-6.3,1.4-11.9,4.3-16.9c2.9-5,6.8-8.9,11.8-11.8c5-2.9,10.6-4.3,16.9-4.3c6.3,0,11.9,1.4,16.9,4.3c5,2.9,8.9,6.8,11.7,11.8
			c2.9,5,4.3,10.6,4.3,16.9l-2.9,4.7c0,5.3-1.3,10.1-3.9,14.4c-2.6,4.2-6.2,7.6-10.7,10.1C379.6,416.8,374.5,418.1,368.8,418.1z
			 M368.8,411.5c4.9,0,9.4-1.2,13.3-3.5c3.9-2.3,7-5.5,9.2-9.4c2.2-4,3.4-8.4,3.4-13.4c0-5-1.1-9.5-3.4-13.5c-2.2-4-5.3-7.1-9.2-9.4
			c-3.9-2.3-8.3-3.5-13.3-3.5c-4.9,0-9.3,1.2-13.2,3.5c-3.9,2.3-7,5.5-9.3,9.4c-2.3,4-3.4,8.5-3.4,13.5c0,5,1.1,9.4,3.4,13.4
			c2.3,4,5.4,7.1,9.3,9.4C359.5,410.3,363.9,411.5,368.8,411.5z M398.1,417.4c-1,0-1.9-0.3-2.5-1c-0.7-0.7-1-1.5-1-2.5v-21.6
			l2.2-7.1h4.8v28.6c0,1-0.3,1.9-0.9,2.5S399.2,417.4,398.1,417.4z"/>
		<path class="st0" d="M440.4,418.1c-6.1,0-11.6-1.5-16.4-4.4c-4.8-2.9-8.6-6.8-11.4-11.8c-2.8-5-4.2-10.5-4.2-16.7
			c0-6.3,1.3-11.9,3.9-16.9c2.6-5,6.2-8.9,10.7-11.7c4.6-2.9,9.8-4.3,15.7-4.3c5,0,9.6,1,13.8,2.9c4.2,1.9,7.8,4.9,10.8,8.8
			c0.6,0.8,0.9,1.6,0.7,2.5c-0.2,0.9-0.7,1.6-1.5,2.1c-0.7,0.6-1.5,0.8-2.4,0.6c-0.9-0.1-1.6-0.6-2.2-1.4c-5-6-11.4-9-19.2-9
			c-4.6,0-8.7,1.1-12.2,3.4c-3.5,2.3-6.2,5.4-8.1,9.3c-1.9,3.9-2.9,8.4-2.9,13.6c0,5,1.1,9.4,3.2,13.4c2.1,4,5,7.1,8.8,9.4
			c3.7,2.3,8.1,3.5,13,3.5c3.2,0,6.3-0.5,9.1-1.4c2.9-0.9,5.4-2.4,7.5-4.4c0.7-0.6,1.5-1,2.4-1.1c0.9-0.1,1.6,0.2,2.2,0.8
			c0.8,0.7,1.2,1.5,1.2,2.4c0,0.9-0.3,1.7-1,2.3C456.1,415.4,449,418.1,440.4,418.1z"/>
		<path class="st0" d="M502.9,418c-6.2,0-11.7-1.4-16.6-4.2c-4.8-2.8-8.6-6.7-11.4-11.6c-2.8-5-4.1-10.6-4.1-17
			c0-6.4,1.3-12.1,3.9-17c2.6-4.9,6.2-8.8,10.7-11.6c4.6-2.8,9.8-4.2,15.7-4.2c5.8,0,11,1.4,15.4,4.1c4.5,2.7,8,6.4,10.5,11.2
			c2.5,4.8,3.8,10.2,3.8,16.4c0,1-0.3,1.8-0.9,2.4c-0.6,0.6-1.5,0.9-2.5,0.9h-51.9v-6.1h53.8l-5.2,3.9c0.2-5.1-0.7-9.6-2.6-13.6
			c-1.9-3.9-4.6-7-8.1-9.3c-3.5-2.2-7.6-3.4-12.3-3.4c-4.5,0-8.5,1.1-12,3.4c-3.5,2.2-6.2,5.3-8.3,9.3c-2,3.9-3,8.5-3,13.7
			c0,5.1,1.1,9.6,3.2,13.6c2.1,3.9,5.1,7,8.8,9.3c3.8,2.2,8.1,3.4,13,3.4c3.1,0,6.1-0.5,9.3-1.6c3.1-1.1,5.6-2.5,7.4-4.2
			c0.6-0.6,1.4-1,2.3-1c0.9,0,1.7,0.2,2.3,0.8c0.9,0.7,1.3,1.5,1.4,2.4c0,0.9-0.3,1.7-1.1,2.4c-2.5,2.3-5.8,4.2-9.8,5.7
			C510.5,417.2,506.6,418,502.9,418z"/>
	</g>
	<g>
		<path class="st1" d="M308.4,457.5c-2.3,0-4.4-0.5-6.2-1.5c-1.8-1-3.2-2.4-4.2-4.1c-1-1.7-1.5-3.7-1.5-6c0-2.3,0.5-4.3,1.4-6
			c1-1.7,2.3-3.1,4-4.1c1.7-1,3.6-1.5,5.8-1.5c2.2,0,4,0.5,5.6,1.4c1.6,1,2.7,2.3,3.6,4c0.8,1.7,1.2,3.6,1.2,5.8
			c0,0.5-0.2,1-0.5,1.3c-0.4,0.3-0.8,0.5-1.4,0.5h-16.8V444h16.7l-1.7,1.2c0-1.4-0.3-2.6-0.8-3.7c-0.5-1.1-1.3-2-2.3-2.6
			c-1-0.6-2.2-1-3.5-1c-1.6,0-2.9,0.3-4.1,1c-1.1,0.7-2,1.6-2.6,2.9c-0.6,1.2-0.9,2.6-0.9,4.1c0,1.5,0.3,2.9,1,4.1
			c0.7,1.2,1.7,2.1,2.9,2.8c1.2,0.7,2.6,1,4.2,1c0.9,0,1.7-0.2,2.7-0.5c0.9-0.3,1.6-0.7,2.2-1.1c0.4-0.3,0.9-0.5,1.4-0.5
			c0.5,0,0.9,0.1,1.3,0.4c0.5,0.4,0.7,0.9,0.8,1.4c0,0.5-0.2,0.9-0.7,1.3c-0.9,0.8-2.1,1.4-3.5,1.8
			C311,457.2,309.7,457.5,308.4,457.5z"/>
		<path class="st1" d="M331.9,457.5c-1.9,0-3.8-0.3-5.4-0.9s-2.9-1.4-3.9-2.3c-0.4-0.4-0.6-1-0.5-1.5c0.1-0.6,0.3-1,0.8-1.4
			c0.6-0.4,1.1-0.6,1.6-0.6c0.5,0.1,1,0.3,1.4,0.7c0.5,0.5,1.2,1,2.3,1.5c1,0.5,2.2,0.7,3.5,0.7c1.6,0,2.8-0.3,3.7-0.8
			s1.3-1.2,1.3-2s-0.4-1.6-1.2-2.2c-0.8-0.6-2.3-1.1-4.5-1.5c-2.8-0.6-4.8-1.4-6.1-2.5c-1.3-1.1-1.9-2.5-1.9-4.1
			c0-1.4,0.4-2.6,1.3-3.5c0.8-0.9,1.9-1.6,3.2-2.1c1.3-0.5,2.7-0.7,4.1-0.7c1.8,0,3.5,0.3,4.9,0.9c1.4,0.6,2.5,1.4,3.4,2.4
			c0.4,0.4,0.6,0.9,0.5,1.4c0,0.5-0.3,0.9-0.7,1.2c-0.4,0.3-1,0.4-1.6,0.3c-0.6-0.1-1.1-0.4-1.5-0.8c-0.7-0.7-1.4-1.1-2.3-1.4
			c-0.8-0.3-1.7-0.4-2.8-0.4c-1.2,0-2.3,0.2-3.1,0.6c-0.8,0.4-1.3,1-1.3,1.8c0,0.5,0.1,1,0.4,1.4c0.3,0.4,0.8,0.8,1.6,1.1
			c0.8,0.3,1.9,0.6,3.4,0.9c2.1,0.4,3.7,0.9,4.9,1.6c1.2,0.6,2.1,1.4,2.6,2.2c0.5,0.8,0.8,1.8,0.8,2.9c0,1.3-0.3,2.4-1,3.5
			c-0.7,1-1.7,1.9-3,2.5C335.5,457.2,333.9,457.5,331.9,457.5z"/>
		<path class="st1" d="M356.6,457.5c-2.2,0-4.2-0.5-5.9-1.5c-1.7-1-3.1-2.4-4.1-4.1c-1-1.7-1.5-3.7-1.5-5.9c0-2.3,0.5-4.3,1.5-6
			c1-1.8,2.3-3.1,4-4.1c1.7-1,3.6-1.5,5.8-1.5c1.6,0,3.1,0.3,4.5,0.9c1.4,0.6,2.6,1.6,3.7,2.8c0.4,0.4,0.5,0.9,0.4,1.4
			c-0.1,0.5-0.4,0.9-0.9,1.3c-0.4,0.3-0.8,0.4-1.3,0.3c-0.5-0.1-0.9-0.3-1.3-0.7c-1.4-1.4-3.1-2.2-5.1-2.2c-1.4,0-2.7,0.3-3.8,1
			c-1.1,0.7-1.9,1.6-2.5,2.7c-0.6,1.2-0.9,2.5-0.9,4.1c0,1.5,0.3,2.8,0.9,4c0.6,1.2,1.5,2.1,2.6,2.8c1.1,0.7,2.4,1,3.9,1
			c1,0,1.8-0.1,2.6-0.4c0.7-0.2,1.4-0.6,2-1.1c0.4-0.4,0.9-0.6,1.4-0.6c0.5,0,0.9,0.1,1.3,0.4c0.5,0.4,0.7,0.8,0.8,1.3
			c0.1,0.5-0.1,0.9-0.5,1.3C362.1,456.6,359.6,457.5,356.6,457.5z"/>
		<path class="st1" d="M373.4,457.3c-0.7,0-1.2-0.2-1.5-0.5c-0.4-0.3-0.5-0.9-0.5-1.6v-18.7c0-0.7,0.2-1.2,0.5-1.5
			c0.4-0.4,0.9-0.5,1.5-0.5c0.7,0,1.2,0.2,1.6,0.5c0.3,0.3,0.5,0.9,0.5,1.6v18.7c0,0.7-0.2,1.2-0.5,1.5
			C374.7,457.1,374.1,457.3,373.4,457.3z M373.4,443c0-1.7,0.4-3.2,1.2-4.5c0.8-1.3,1.9-2.4,3.3-3.2c1.4-0.8,2.9-1.2,4.6-1.2
			c1.7,0,2.9,0.3,3.7,0.8c0.8,0.5,1.1,1.2,0.9,1.9c-0.1,0.4-0.2,0.7-0.5,0.9c-0.2,0.2-0.5,0.3-0.8,0.4c-0.3,0.1-0.6,0-1,0
			c-1.8-0.4-3.4-0.4-4.8-0.1c-1.4,0.3-2.5,0.9-3.4,1.7c-0.8,0.8-1.2,1.9-1.2,3.2H373.4z"/>
		<path class="st1" d="M394.2,430.8c-0.8,0-1.4-0.3-1.9-0.8c-0.5-0.5-0.8-1.2-0.8-1.9c0-0.8,0.3-1.4,0.8-1.9
			c0.5-0.5,1.2-0.8,1.9-0.8c0.8,0,1.4,0.3,1.9,0.8c0.5,0.5,0.8,1.2,0.8,1.9c0,0.8-0.3,1.4-0.8,1.9
			C395.6,430.5,394.9,430.8,394.2,430.8z M394.2,457.3c-0.6,0-1.1-0.2-1.5-0.6c-0.4-0.4-0.6-0.9-0.6-1.5v-18.6
			c0-0.6,0.2-1.2,0.6-1.5c0.4-0.4,0.9-0.6,1.5-0.6c0.6,0,1.2,0.2,1.5,0.6c0.4,0.4,0.6,0.9,0.6,1.5v18.6c0,0.6-0.2,1.1-0.6,1.5
			C395.3,457.1,394.8,457.3,394.2,457.3z"/>
		<path class="st1" d="M403.3,438.9c-0.6,0-1.1-0.2-1.4-0.5c-0.4-0.3-0.5-0.8-0.5-1.3c0-0.6,0.2-1,0.5-1.3c0.4-0.3,0.8-0.5,1.4-0.5
			h9.6c0.6,0,1.1,0.2,1.4,0.5c0.4,0.3,0.5,0.8,0.5,1.3c0,0.5-0.2,0.9-0.5,1.3c-0.4,0.3-0.8,0.5-1.4,0.5H403.3z M412.6,457.3
			c-1.4,0-2.6-0.4-3.8-1.1c-1.1-0.7-2-1.7-2.6-2.9c-0.6-1.2-1-2.6-1-4.1v-19.9c0-0.6,0.2-1.1,0.6-1.5s0.9-0.6,1.5-0.6
			c0.6,0,1.1,0.2,1.5,0.6s0.6,0.9,0.6,1.5v19.9c0,1.1,0.3,2,0.9,2.8c0.6,0.8,1.4,1.1,2.3,1.1h1.4c0.5,0,0.9,0.2,1.3,0.6
			c0.3,0.4,0.5,0.9,0.5,1.5c0,0.6-0.2,1.1-0.7,1.5c-0.5,0.4-1.1,0.6-1.8,0.6H412.6z"/>
		<path class="st1" d="M431.3,457.5c-2.3,0-4.2-0.5-6-1.5c-1.7-1-3.1-2.4-4.1-4.1c-1-1.7-1.5-3.7-1.5-6c0-2.3,0.5-4.3,1.5-6
			c1-1.7,2.3-3.1,4.1-4.1c1.7-1,3.7-1.5,6-1.5c2.2,0,4.2,0.5,5.9,1.5c1.7,1,3.1,2.4,4.1,4.1c1,1.7,1.5,3.8,1.5,6
			c0,2.3-0.5,4.3-1.5,6c-1,1.7-2.3,3.1-4,4.1C435.6,457,433.6,457.5,431.3,457.5z M431.3,453.7c1.4,0,2.7-0.3,3.8-1
			c1.1-0.7,2-1.6,2.6-2.8c0.6-1.2,0.9-2.5,0.9-4c0-1.5-0.3-2.9-0.9-4.1c-0.6-1.2-1.5-2.1-2.6-2.8c-1.1-0.7-2.4-1-3.8-1
			s-2.7,0.3-3.8,1c-1.1,0.7-2,1.6-2.6,2.8c-0.6,1.2-1,2.5-1,4.1c0,1.5,0.3,2.9,1,4c0.6,1.2,1.5,2.1,2.6,2.8
			C428.6,453.4,429.9,453.7,431.3,453.7z M431.5,430.9c-0.6,0-1.1-0.2-1.5-0.6c-0.4-0.4-0.6-0.9-0.6-1.5c0-0.6,0.2-1.1,0.5-1.4
			l4.1-4.1c0.4-0.4,0.9-0.6,1.5-0.6c0.6,0,1.2,0.2,1.5,0.6c0.4,0.4,0.6,0.9,0.6,1.5c0,0.3,0,0.5-0.1,0.8c-0.1,0.3-0.2,0.5-0.5,0.7
			l-4,4C432.6,430.7,432.1,430.9,431.5,430.9z"/>
		<path class="st1" d="M451.3,457.3c-0.7,0-1.2-0.2-1.5-0.5c-0.4-0.3-0.5-0.9-0.5-1.6v-18.7c0-0.7,0.2-1.2,0.5-1.5
			c0.4-0.4,0.9-0.5,1.5-0.5c0.7,0,1.2,0.2,1.6,0.5c0.3,0.3,0.5,0.9,0.5,1.6v18.7c0,0.7-0.2,1.2-0.5,1.5
			C452.5,457.1,452,457.3,451.3,457.3z M451.2,443c0-1.7,0.4-3.2,1.2-4.5c0.8-1.3,1.9-2.4,3.3-3.2s2.9-1.2,4.6-1.2
			c1.7,0,2.9,0.3,3.7,0.8c0.8,0.5,1.1,1.2,0.9,1.9c-0.1,0.4-0.2,0.7-0.5,0.9s-0.5,0.3-0.8,0.4c-0.3,0.1-0.6,0-1,0
			c-1.8-0.4-3.4-0.4-4.8-0.1c-1.4,0.3-2.5,0.9-3.4,1.7c-0.8,0.8-1.2,1.9-1.2,3.2H451.2z"/>
		<path class="st1" d="M472,430.8c-0.8,0-1.4-0.3-1.9-0.8c-0.5-0.5-0.8-1.2-0.8-1.9c0-0.8,0.3-1.4,0.8-1.9c0.5-0.5,1.2-0.8,1.9-0.8
			c0.8,0,1.4,0.3,1.9,0.8c0.5,0.5,0.8,1.2,0.8,1.9c0,0.8-0.3,1.4-0.8,1.9C473.4,430.5,472.8,430.8,472,430.8z M472,457.3
			c-0.6,0-1.1-0.2-1.5-0.6c-0.4-0.4-0.6-0.9-0.6-1.5v-18.6c0-0.6,0.2-1.2,0.6-1.5c0.4-0.4,0.9-0.6,1.5-0.6c0.6,0,1.2,0.2,1.5,0.6
			s0.6,0.9,0.6,1.5v18.6c0,0.6-0.2,1.1-0.6,1.5C473.2,457.1,472.6,457.3,472,457.3z"/>
		<path class="st1" d="M492.4,457.5c-2.3,0-4.2-0.5-6-1.5c-1.7-1-3.1-2.4-4.1-4.1c-1-1.7-1.5-3.7-1.5-6c0-2.3,0.5-4.3,1.5-6
			c1-1.7,2.3-3.1,4.1-4.1c1.7-1,3.7-1.5,6-1.5c2.2,0,4.2,0.5,5.9,1.5s3.1,2.4,4.1,4.1c1,1.7,1.5,3.8,1.5,6c0,2.3-0.5,4.3-1.5,6
			c-1,1.7-2.3,3.1-4,4.1C496.7,457,494.7,457.5,492.4,457.5z M492.4,453.7c1.4,0,2.7-0.3,3.8-1c1.1-0.7,2-1.6,2.6-2.8
			c0.6-1.2,0.9-2.5,0.9-4c0-1.5-0.3-2.9-0.9-4.1c-0.6-1.2-1.5-2.1-2.6-2.8c-1.1-0.7-2.4-1-3.8-1s-2.7,0.3-3.8,1
			c-1.1,0.7-2,1.6-2.6,2.8c-0.6,1.2-1,2.5-1,4.1c0,1.5,0.3,2.9,1,4c0.6,1.2,1.5,2.1,2.6,2.8C489.7,453.4,491,453.7,492.4,453.7z"/>
		<path class="st1" d="M518.5,457.5c-1.9,0-3.8-0.3-5.4-0.9s-2.9-1.4-3.9-2.3c-0.4-0.4-0.6-1-0.5-1.5c0.1-0.6,0.3-1,0.8-1.4
			c0.6-0.4,1.1-0.6,1.6-0.6c0.5,0.1,1,0.3,1.4,0.7c0.5,0.5,1.2,1,2.3,1.5c1,0.5,2.2,0.7,3.5,0.7c1.6,0,2.8-0.3,3.7-0.8
			c0.8-0.5,1.3-1.2,1.3-2s-0.4-1.6-1.2-2.2c-0.8-0.6-2.3-1.1-4.5-1.5c-2.8-0.6-4.8-1.4-6.1-2.5c-1.3-1.1-1.9-2.5-1.9-4.1
			c0-1.4,0.4-2.6,1.3-3.5c0.8-0.9,1.9-1.6,3.2-2.1c1.3-0.5,2.7-0.7,4.1-0.7c1.8,0,3.5,0.3,4.9,0.9c1.4,0.6,2.5,1.4,3.4,2.4
			c0.4,0.4,0.6,0.9,0.5,1.4c0,0.5-0.3,0.9-0.7,1.2c-0.4,0.3-1,0.4-1.6,0.3c-0.6-0.1-1.1-0.4-1.5-0.8c-0.7-0.7-1.4-1.1-2.3-1.4
			c-0.8-0.3-1.7-0.4-2.8-0.4c-1.2,0-2.3,0.2-3.1,0.6c-0.8,0.4-1.3,1-1.3,1.8c0,0.5,0.1,1,0.4,1.4c0.3,0.4,0.8,0.8,1.6,1.1
			c0.8,0.3,1.9,0.6,3.4,0.9c2.1,0.4,3.7,0.9,4.9,1.6c1.2,0.6,2.1,1.4,2.6,2.2c0.5,0.8,0.8,1.8,0.8,2.9c0,1.3-0.3,2.4-1,3.5
			c-0.7,1-1.7,1.9-3,2.5C522.2,457.2,520.5,457.5,518.5,457.5z"/>
	</g>
	<path class="st1" d="M381.9,196.8c-0.2-3.4-3.1-6.1-6.7-6.1H337l3.6-3.8c27.4-28.6,27.7-74.7,0.7-103c-13-13.7-30.6-21.1-49.3-21.1
		c-18.9,0-36.9,7.6-50.4,21.8c-27.2,28.6-27.7,74.7-0.5,103l2.9,3.1h-38.5c-3.6,0-6.5,2.7-6.7,6.1l-6.7,77.1
		c-0.2,1.8,0.5,3.8,1.8,5.2c1.3,1.3,3.1,2.2,4.9,2.2h182.9c1.8,0,3.6-0.9,4.9-2.2c1.3-1.3,1.8-3.4,1.8-5.2L381.9,196.8z M290.4,98.8
		c14.8,0,27,12.1,27,27s-12.1,27-27,27c-14.8,0-27-12.1-27-27S275.6,98.8,290.4,98.8z M297.2,267.9V249h-13.5v18.9h-77.4l2.5-27.4
		h40.5V227l-39.4,0l2-22.9h45.2l28.6,29.9c1.3,1.3,2.9,2,4.9,2c1.8,0,3.6-0.7,4.9-2l28.6-29.7h45l2,22.9h-39.6v13.5h40.5l2.5,27.4
		h-77.4L297.2,267.9z"/>
</g>
</svg>
